<svg width="50" height="45" viewBox="0 0 50 45" fill="none" xmlns="http://www.w3.org/2000/svg">
<path d="M31.642 44.9484C31.1059 44.771 30.5392 44.6546 30.0393 44.4066C28.5301 43.6586 27.0361 42.8821 25.5632 42.0674C25.09 41.806 24.7408 41.7907 24.26 42.0578C22.787 42.8745 21.2816 43.6281 19.7877 44.4085C18.5188 45.0706 17.2672 45.0419 16.0995 44.2081C14.9299 43.3743 14.4815 42.199 14.7124 40.7852C14.9814 39.1233 15.3172 37.471 15.5271 35.8034C15.5805 35.3837 15.384 34.8017 15.0921 34.4907C13.9836 33.3097 12.7949 32.205 11.6272 31.0812C10.5377 30.0318 10.1657 28.7763 10.6503 27.3453C11.1101 25.9887 12.1118 25.2465 13.5409 25.0519C15.1455 24.8344 16.7425 24.5406 18.3529 24.3631C19.0168 24.2887 19.3469 24.0044 19.6159 23.4244C20.3257 21.898 21.0889 20.3964 21.854 18.8986C22.4722 17.689 23.4834 17.0689 24.8477 17.0479C26.2538 17.0269 27.3013 17.6489 27.9424 18.8891C28.7304 20.4117 29.5032 21.9438 30.2225 23.5007C30.4858 24.0693 30.8292 24.2868 31.4379 24.3593C33.1093 24.5615 34.7711 24.8344 36.4368 25.0843C37.7896 25.2885 38.7168 26.0536 39.1519 27.3281C39.6098 28.6733 39.3389 29.9116 38.3181 30.9285C37.1256 32.1172 35.8778 33.2544 34.7215 34.4774C34.4277 34.7884 34.2216 35.3665 34.275 35.7824C34.4945 37.513 34.8742 39.2245 35.1107 40.955C35.4008 43.0786 33.7828 44.874 31.642 44.9503V44.9484ZM16.3838 41.2412C16.2979 42.6837 17.6679 43.548 18.9997 42.8668C20.6386 42.0273 22.2795 41.184 23.8841 40.2815C24.5882 39.8865 25.1529 39.8274 25.8875 40.2567C27.4502 41.1668 29.0834 41.9567 30.6785 42.8115C31.3444 43.1702 31.9988 43.2789 32.6532 42.8287C33.3325 42.3612 33.5157 41.7029 33.3726 40.9054C33.0501 39.0928 32.8002 37.265 32.4224 35.4638C32.2564 34.6682 32.4644 34.1683 33.0387 33.6398C34.3475 32.4358 35.5897 31.1594 36.8756 29.9306C37.448 29.385 37.7762 28.7763 37.5415 27.9769C37.3049 27.1679 36.6982 26.8569 35.9045 26.7481C33.985 26.4829 32.0656 26.212 30.1576 25.8762C29.797 25.8132 29.3505 25.5098 29.1826 25.1912C28.303 23.5389 27.4921 21.8465 26.6717 20.1636C26.3073 19.4157 25.8703 18.7822 24.924 18.7727C23.9795 18.7632 23.5178 19.3718 23.1495 20.1255C22.3272 21.8083 21.522 23.5026 20.6367 25.153C20.4536 25.4927 19.9804 25.8151 19.593 25.8838C17.7175 26.2196 15.8286 26.481 13.9416 26.7386C13.1536 26.8454 12.5316 27.145 12.2759 27.9425C12.0221 28.7324 12.3217 29.3544 12.8979 29.9058C14.2507 31.2033 15.5672 32.5408 16.9409 33.8153C17.4256 34.2656 17.521 34.714 17.4065 35.3322C17.0402 37.2993 16.7215 39.2741 16.3857 41.245L16.3838 41.2412Z" fill="#1B4582"/>
<path d="M36.7467 39.6425C36.2544 38.0016 36.3002 38.0741 37.6282 37.2269C38.6165 36.5954 39.4332 36.5687 40.3967 37.2231C41.1275 37.7192 41.946 38.1008 42.7588 38.4614C44.1383 39.0739 45.3918 38.1313 45.1972 36.6374C45.0484 35.504 44.7851 34.3821 44.6801 33.2469C44.642 32.8462 44.808 32.3196 45.0732 32.0181C45.7868 31.211 46.5977 30.4879 47.3799 29.7419C47.9314 29.2153 48.2061 28.5971 47.9638 27.853C47.71 27.0688 47.0918 26.7349 46.3019 26.6319C45.2315 26.4907 44.1535 26.3628 43.1022 26.1301C42.7378 26.0499 42.3161 25.7408 42.1311 25.4165C41.5625 24.4262 41.1255 23.3616 40.5799 22.358C39.8529 21.0186 38.1414 20.9155 37.5614 22.2702C37.031 23.5066 36.306 23.4684 35.2451 23.0811C35.7679 21.6387 36.3613 20.2573 38.0117 19.7593C39.3473 19.3567 40.6066 19.6334 41.4862 20.6961C42.1406 21.4879 42.6062 22.4648 43.024 23.4169C43.3693 24.2011 43.8177 24.6247 44.7011 24.6533C45.3956 24.6743 46.0863 24.8345 46.7751 24.949C48.1813 25.1856 49.1792 25.9564 49.6085 27.3264C50.0359 28.6906 49.6848 29.8964 48.6697 30.9058C48.6469 30.9287 48.6259 30.9535 48.6011 30.9706C46.571 32.2585 46.1684 34.0311 46.8762 36.2577C47.3036 37.6028 46.7446 38.782 45.6837 39.6463C44.6076 40.524 43.3636 40.6384 42.0967 40.0718C41.3717 39.7493 40.6447 39.4059 39.9846 38.9728C39.313 38.532 38.7387 38.4958 38.0785 38.967C37.6988 39.238 37.239 39.4001 36.7505 39.6444L36.7467 39.6425Z" fill="#1B4582"/>
<path d="M13.0567 39.5964C12.9308 39.564 12.8564 39.564 12.8125 39.5277C11.3529 38.3238 9.97148 38.6367 8.53857 39.6384C7.51398 40.3558 6.35392 40.6382 5.09846 40.186C3.53391 39.6212 2.44254 38.0185 2.91191 36.4234C3.59688 34.09 3.20574 32.3251 1.14892 30.8559C0.000311061 30.0355 -0.230556 28.6655 0.206374 27.3051C0.645212 25.9409 1.64309 25.1739 3.05119 24.9392C3.39654 24.882 3.7457 24.7561 4.08341 24.7828C5.9418 24.9354 6.74125 23.8231 7.35944 22.2909C7.66662 21.5296 8.20277 20.7607 8.84194 20.2551C10.2958 19.1046 12.4042 19.4557 13.4994 20.9496C13.9592 21.5754 14.2568 22.3196 14.6365 23.0293C13.5769 23.3397 12.7921 23.0732 12.2821 22.2299C11.5208 20.9706 9.92759 21.024 9.21591 22.3596C8.67786 23.3689 8.23711 24.4317 7.66853 25.42C7.48155 25.7444 7.05797 26.0497 6.69164 26.1298C5.6079 26.3645 4.47074 26.3893 3.40798 26.685C2.83559 26.8453 2.20977 27.2918 1.89876 27.7898C1.49999 28.4289 1.811 29.1368 2.36622 29.6749C3.18857 30.4705 4.03571 31.2451 4.80654 32.0885C5.03932 32.3441 5.18051 32.8135 5.14426 33.1608C5.02405 34.296 4.7016 35.4179 4.65772 36.5513C4.63482 37.1351 4.87523 37.9594 5.2969 38.2685C5.72238 38.5814 6.58097 38.5795 7.1362 38.3848C8.115 38.0414 9.03084 37.4881 9.92568 36.9443C10.5553 36.5627 11.0953 36.5608 11.6772 36.9748C11.8566 37.1027 12.0626 37.1981 12.2592 37.3011C13.1445 37.7628 13.4097 38.5273 13.0548 39.5945L13.0567 39.5964Z" fill="#1B4582"/>
<path d="M29.5759 4.73182C29.5721 7.30761 27.4829 9.41213 24.9109 9.43121C22.3217 9.45029 20.1924 7.30571 20.1943 4.6784C20.1943 2.10452 22.295 0.00191321 24.867 5.21426e-06C27.4981 -0.00381077 29.5797 2.08735 29.5759 4.73182Z" fill="#1B4582"/>
<path d="M0.929688 23.7602C1.65854 21.2646 2.30917 18.9235 3.04947 16.611C3.17539 16.2179 3.64285 15.7371 4.02636 15.657C5.34287 15.3803 6.68801 15.201 8.03123 15.1037C9.32294 15.0102 10.6242 15.0636 11.9216 15.0541C12.5284 15.0502 13.1351 15.0541 13.8621 15.0541C13.5205 16.2504 13.2458 17.2177 12.9519 18.248C12.6371 18.1774 12.37 18.1164 12.101 18.0553C9.64539 17.4944 7.30047 18.4121 6.26634 20.6941C5.52032 22.3388 4.6102 23.3328 2.7232 23.2813C2.20995 23.268 1.68907 23.5484 0.929688 23.7602Z" fill="#1B4582"/>
<path d="M48.8392 23.6513C47.5876 23.4166 46.4886 23.2582 45.422 22.9816C45.029 22.8785 44.6264 22.5523 44.3765 22.2184C44.0407 21.7681 43.8708 21.1976 43.5942 20.6996C42.3006 18.3776 40.0491 17.4369 37.4619 18.1219C37.2825 18.1696 37.1013 18.204 36.8475 18.2593C36.5556 17.2614 36.2732 16.2979 35.9336 15.1359C36.485 15.1016 36.9563 15.0481 37.4276 15.0462C38.9692 15.0367 40.5166 14.9604 42.0506 15.071C43.3595 15.1664 44.6646 15.4278 45.941 15.7388C46.2921 15.8247 46.6851 16.3074 46.8034 16.6871C47.5189 18.9767 48.1581 21.2892 48.8412 23.6513H48.8392Z" fill="#1B4582"/>
<path d="M6.1426 10.0554C6.15024 7.85735 7.81782 6.18404 10.0044 6.18214C12.1967 6.17832 13.9005 7.8459 13.9177 10.0115C13.9348 12.2152 12.1928 13.9686 10.0006 13.9534C7.83881 13.9381 6.13497 12.2171 6.1426 10.0573V10.0554Z" fill="#1B4582"/>
<path d="M39.7571 6.18414C41.9552 6.17269 43.6418 7.82501 43.6628 10.0116C43.6838 12.2229 41.9647 13.9573 39.7571 13.9516C37.6087 13.9459 35.8896 12.2153 35.8896 10.0593C35.8896 7.88798 37.5782 6.19559 39.7571 6.18414Z" fill="#1B4582"/>
<path d="M35.1287 18.7975C34.6173 16.8628 34.0736 14.9357 33.5107 13.0163C33.2512 12.1329 32.6559 11.5051 31.7554 11.2934C30.1565 10.9175 28.5824 10.5626 26.8747 10.7668C25.0965 10.9785 23.2743 10.8145 21.4713 10.8145H21.4541C20.1948 10.8755 18.9298 10.9862 17.7583 11.4326C17.1649 11.6597 16.5506 12.3428 16.3369 12.9552C15.6691 14.8708 15.1711 16.8494 14.6521 18.8147C14.5739 19.1085 14.6521 19.5015 14.7914 19.782C15.1711 20.5471 15.5909 21.2989 16.0602 22.0125C16.2701 22.333 16.6097 22.7318 16.936 22.7776C17.5179 22.8596 18.096 22.7222 18.4109 22.0239C18.9947 20.7188 19.6415 19.4424 20.3036 18.1755C21.2709 16.3228 22.8088 15.3421 24.9152 15.3478C27.0197 15.3536 28.5557 16.3266 29.5154 18.1907C30.1984 19.5187 30.788 20.9001 31.5607 22.1727C31.7859 22.5429 32.4861 22.6936 32.9956 22.7871C33.1844 22.8214 33.5183 22.4379 33.6786 22.1784C34.1613 21.3981 34.6212 20.5967 35.0257 19.7744C35.163 19.4958 35.2088 19.1009 35.1306 18.8013L35.1287 18.7975Z" fill="#1B4582"/>
</svg>
